<?xml version="1.0" encoding="UTF-8" ?>
<!DOCTYPE svg PUBLIC "-//W3C//DTD SVG 1.1//EN" "http://www.w3.org/Graphics/SVG/1.1/DTD/svg11.dtd">
<svg width="581pt" height="575pt" viewBox="0 0 581 575" version="1.1" xmlns="http://www.w3.org/2000/svg">
<g id="#000000ff">
<path fill="#ffffff" opacity="1.00" d=" M 449.68 2.06 C 459.72 -1.00 471.52 3.62 476.47 12.96 C 500.91 61.68 525.36 110.42 549.77 159.16 C 553.57 166.21 553.26 175.18 548.99 181.95 C 545.31 188.37 538.21 192.29 530.98 193.05 C 521.98 193.83 512.65 188.73 508.61 180.56 C 484.11 131.78 459.67 82.98 435.20 34.18 C 432.83 29.47 432.91 24.00 433.59 18.89 C 435.34 10.91 441.82 4.22 449.68 2.06 Z" />
<path fill="#ffffff" opacity="1.00" d=" M 269.40 117.76 C 317.68 93.83 365.87 69.59 414.04 45.39 C 414.26 45.47 414.69 45.63 414.91 45.70 C 433.08 82.16 451.41 118.53 469.62 154.96 C 475.69 166.66 481.22 178.65 487.57 190.20 C 487.32 190.45 486.81 190.96 486.56 191.21 C 470.76 199.08 454.96 206.97 439.19 214.93 C 437.76 215.50 435.28 215.95 436.33 218.14 C 482.69 301.91 528.96 385.73 575.26 469.54 C 579.87 477.05 580.70 486.27 579.13 494.79 C 576.56 506.93 566.81 517.09 554.92 520.46 C 547.54 522.46 539.44 522.26 532.28 519.47 C 523.64 516.07 516.46 509.05 513.01 500.41 C 473.35 412.95 433.94 325.39 394.20 237.97 C 393.66 238.09 392.58 238.34 392.04 238.47 C 375.38 246.86 358.72 255.25 341.99 263.51 C 318.93 217.18 295.58 171.00 272.44 124.71 C 271.56 122.34 269.61 120.34 269.40 117.76 Z" />
<path fill="#ffffff" opacity="1.00" d=" M 223.70 115.96 C 233.41 114.10 243.80 119.52 248.17 128.34 C 272.38 176.58 296.56 224.85 320.77 273.10 C 324.52 279.82 324.64 288.38 321.05 295.19 C 317.18 302.88 308.56 307.94 299.97 307.56 C 291.71 307.54 283.60 302.66 279.95 295.20 C 255.33 246.17 230.78 197.11 206.14 148.09 C 203.82 142.34 203.64 135.62 206.01 129.84 C 209.01 122.58 215.95 117.18 223.70 115.96 Z" />
<path fill="#ffffff" opacity="1.00" d=" M 24.54 526.03 C 25.19 514.53 35.33 504.32 46.96 504.26 C 116.97 504.19 186.97 504.24 256.97 504.24 C 269.67 503.70 280.91 515.38 280.46 527.96 C 280.19 535.52 281.39 543.00 281.68 550.54 C 289.34 550.98 297.00 551.43 304.67 551.68 C 304.21 559.21 304.70 566.84 303.28 574.29 C 202.73 574.22 102.17 574.31 1.62 574.24 C 1.60 574.43 1.57 574.81 1.56 575.00 L 0.00 575.00 L 0.00 564.28 C 0.18 564.05 0.53 563.59 0.71 563.35 C 0.63 559.02 0.50 554.69 0.48 550.35 C 8.48 550.36 16.48 550.52 24.48 550.63 C 24.57 542.43 24.41 534.22 24.54 526.03 Z" />
</g>
</svg>
