<?xml version="1.0" encoding="UTF-8" ?>
<!DOCTYPE svg PUBLIC "-//W3C//DTD SVG 1.1//EN" "http://www.w3.org/Graphics/SVG/1.1/DTD/svg11.dtd">
<svg width="579pt" height="408pt" viewBox="0 0 579 408" version="1.1" xmlns="http://www.w3.org/2000/svg">
<g id="#000000ff">
<path fill="#ffffff" opacity="1.00" d=" M 128.54 1.81 C 132.04 1.29 135.53 2.17 138.95 2.86 C 190.35 13.67 241.74 24.51 293.14 35.35 C 300.27 36.78 306.56 41.74 309.55 48.38 C 313.04 55.81 311.93 65.02 307.02 71.56 C 301.93 78.72 292.54 82.15 283.99 80.32 C 232.67 69.53 181.37 58.66 130.05 47.87 C 126.67 47.16 123.20 46.48 120.15 44.77 C 112.71 40.83 107.62 32.49 108.26 23.99 C 108.19 12.86 117.56 2.93 128.54 1.81 Z" />
<path fill="#ffffff" opacity="1.00" d=" M 121.73 69.56 C 174.06 80.87 226.50 91.76 278.89 102.77 C 275.49 121.65 270.94 140.31 267.28 159.15 C 359.98 174.77 452.67 190.52 545.36 206.21 C 551.50 207.01 557.71 208.58 562.86 212.18 C 575.09 220.14 581.37 236.40 576.81 250.41 C 572.39 267.09 553.94 278.66 537.01 274.61 C 458.99 254.96 381.01 235.13 302.99 215.47 C 287.89 211.73 272.87 207.62 257.70 204.16 C 254.75 218.08 251.85 232.01 248.86 245.93 C 247.73 250.75 247.11 255.69 245.46 260.38 C 221.33 254.80 197.00 250.10 172.79 244.85 C 144.65 239.00 116.55 232.89 88.38 227.14 C 99.54 174.63 110.53 122.07 121.73 69.56 Z" />
<path fill="#ffffff" opacity="1.00" d=" M 72.58 249.92 C 78.27 248.44 84.21 249.53 89.80 250.94 C 139.55 261.40 189.29 271.91 239.04 282.37 C 243.71 283.21 248.34 284.98 251.80 288.33 C 258.25 293.98 261.04 303.53 258.35 311.71 C 255.40 322.77 243.17 330.49 231.93 327.76 C 179.30 316.70 126.69 305.56 74.06 294.51 C 65.15 292.62 57.63 285.12 56.17 276.07 C 53.97 264.83 61.64 253.01 72.58 249.92 Z" />
<path fill="#ffffff" opacity="1.00" d=" M 37.04 340.50 C 42.53 337.58 48.91 337.70 54.95 337.78 C 120.96 337.80 186.97 337.78 252.97 337.79 C 260.09 337.70 267.33 340.46 271.96 345.99 C 275.63 350.45 277.78 356.19 277.54 362.00 C 277.30 369.27 278.36 376.47 278.73 383.71 C 286.30 384.50 293.92 384.38 301.51 384.80 C 301.46 392.13 300.85 399.44 300.56 406.75 C 298.05 407.15 295.52 407.32 292.99 407.27 C 268.66 407.09 244.34 407.42 220.02 407.13 C 201.34 407.32 182.67 407.23 164.00 407.17 C 114.68 407.25 65.37 407.24 16.05 407.23 C 11.18 407.15 6.27 407.59 1.44 406.76 C 1.69 399.00 0.45 391.29 0.65 383.53 C 8.60 383.51 16.55 383.65 24.50 383.77 C 24.51 376.51 24.50 369.24 24.49 361.97 C 24.18 353.22 29.17 344.43 37.04 340.50 Z" />
</g>
</svg>
