<?xml version="1.0" encoding="UTF-8" ?>
<!DOCTYPE svg PUBLIC "-//W3C//DTD SVG 1.1//EN" "http://www.w3.org/Graphics/SVG/1.1/DTD/svg11.dtd">
<svg width="499pt" height="499pt" viewBox="0 0 499 499" version="1.1" xmlns="http://www.w3.org/2000/svg">
<g id="#000000ff">
<path fill="#ffffff" opacity="1.00" d=" M 108.16 0.00 L 119.77 0.00 C 124.53 1.83 127.72 6.94 127.49 11.99 C 127.44 35.34 127.46 58.69 127.46 82.04 C 127.45 84.92 127.72 87.84 126.94 90.65 C 126.35 99.45 119.61 107.27 111.32 109.89 C 107.74 111.65 103.80 109.57 100.04 110.30 C 81.77 111.05 63.50 109.61 45.26 110.49 C 64.15 111.51 83.08 109.74 102.00 110.84 C 104.26 110.85 106.90 109.81 108.85 111.43 C 81.88 111.79 54.90 111.52 27.93 111.60 C 21.54 112.27 14.50 106.76 15.22 99.99 C 15.09 96.65 15.84 92.81 18.93 90.96 C 36.86 72.63 55.46 54.89 73.19 36.39 C 85.33 24.84 97.06 12.70 108.92 0.89 L 108.16 0.00 Z" />
<path fill="#ffffff" opacity="1.00" d=" M 143.14 0.00 L 355.24 0.00 C 356.07 2.13 358.83 2.48 360.51 3.81 C 365.23 6.27 367.55 11.24 370.07 15.64 C 373.05 23.05 372.30 31.20 372.38 39.01 C 372.14 79.02 372.48 119.03 372.30 159.05 C 372.34 184.92 372.22 210.80 372.52 236.67 C 365.92 236.98 359.60 234.21 352.99 234.44 C 347.77 234.75 342.61 232.94 337.44 234.15 C 318.73 234.79 300.17 240.09 283.84 249.27 C 278.81 252.24 273.59 254.98 269.38 259.12 C 267.69 259.85 265.83 260.18 263.99 260.19 C 209.98 260.19 155.96 260.18 101.95 260.19 C 95.71 259.85 89.47 264.30 88.09 270.38 C 86.43 275.13 89.16 280.23 92.54 283.50 C 96.87 287.09 102.74 286.60 108.01 286.52 C 152.39 286.70 196.79 286.43 241.18 286.66 C 241.25 286.91 241.41 287.41 241.49 287.66 C 237.40 294.04 233.18 300.41 230.38 307.49 C 228.06 311.50 227.71 316.29 225.09 320.15 C 223.67 325.83 222.50 331.60 220.83 337.23 C 220.69 343.84 219.73 350.40 219.68 357.01 C 220.55 367.41 219.93 378.16 223.95 388.00 C 225.00 392.13 225.80 396.38 227.84 400.18 C 232.07 412.63 238.88 424.19 247.34 434.22 C 248.13 436.12 249.61 437.51 251.14 438.83 C 252.48 440.88 254.02 442.82 256.09 444.20 C 257.89 445.80 260.55 447.02 260.85 449.69 C 188.24 449.82 115.63 449.72 43.02 449.73 C 36.26 450.13 29.76 447.45 24.56 443.26 C 21.70 442.22 21.19 438.95 18.88 437.27 C 16.41 432.21 14.11 426.80 14.49 421.04 C 14.42 323.16 14.57 225.27 14.42 127.39 C 43.93 127.52 73.45 127.45 102.97 127.46 C 112.04 126.63 122.13 124.88 128.67 117.99 C 132.85 115.80 135.50 111.65 137.88 107.72 C 142.86 99.40 143.58 89.47 143.40 80.00 C 143.28 53.33 143.68 26.66 143.14 0.00 M 99.05 188.22 C 95.85 188.90 92.30 190.22 90.54 193.16 C 90.91 194.92 88.36 194.34 88.60 196.11 C 88.64 198.16 87.17 199.88 87.52 201.96 C 87.62 204.54 89.47 206.59 89.98 209.09 C 91.79 209.46 91.89 211.64 93.45 212.41 C 95.80 213.59 98.34 214.61 101.03 214.44 C 166.33 214.49 231.62 214.44 296.92 214.46 C 302.71 214.70 308.49 210.62 309.94 204.96 C 312.43 198.20 307.75 190.18 300.84 188.60 C 298.91 188.22 296.97 187.73 294.99 187.82 C 238.02 187.86 181.03 187.79 124.07 187.86 C 115.74 188.00 107.32 187.37 99.05 188.22 M 97.20 328.35 C 93.67 329.78 89.93 332.10 88.88 335.97 C 84.40 344.29 92.15 354.46 101.00 354.40 C 133.34 354.40 165.69 354.37 198.03 354.41 C 204.09 354.65 210.43 350.66 211.73 344.53 C 213.11 341.35 211.74 337.96 210.78 334.97 C 209.26 334.73 209.79 333.06 208.95 332.21 C 205.62 329.29 201.42 327.76 196.97 327.64 C 164.98 327.74 132.99 327.62 101.00 327.67 C 99.68 327.65 98.42 327.88 97.20 328.35 Z" />
<path fill="#ffffff" opacity="1.00" d=" M 301.18 258.27 C 329.85 245.68 364.07 246.72 391.85 261.23 C 398.86 264.62 405.82 268.57 411.14 274.35 C 416.56 276.10 418.82 281.86 423.30 284.93 C 425.12 286.15 425.72 288.36 427.04 290.01 C 429.78 292.07 431.32 295.17 433.04 298.06 C 437.38 303.13 439.61 309.47 442.42 315.44 C 446.77 324.35 448.59 334.18 450.28 343.87 C 450.78 352.28 450.76 360.70 450.36 369.11 C 448.65 383.01 444.60 396.66 437.70 408.89 C 436.75 412.44 433.50 414.64 432.37 418.05 C 447.77 433.83 463.55 449.25 479.06 464.91 C 486.40 472.35 485.45 485.21 478.74 492.66 C 475.97 494.84 472.95 496.65 469.61 497.77 L 469.66 499.00 L 459.63 499.00 L 459.43 497.88 C 456.23 496.09 452.30 495.26 449.84 492.36 C 446.07 487.76 441.50 483.90 437.43 479.57 C 426.32 468.47 415.22 457.38 404.09 446.31 C 402.57 446.45 401.54 447.68 400.32 448.44 C 389.54 456.01 376.66 459.82 363.94 462.51 C 345.78 466.36 326.71 464.77 309.02 459.48 C 301.38 457.08 294.38 453.05 287.31 449.37 C 284.09 446.36 280.12 444.28 276.52 441.81 C 273.95 438.18 269.51 436.64 266.84 433.11 C 263.38 430.41 261.88 425.96 258.19 423.44 C 255.35 419.94 253.64 415.65 250.66 412.24 C 235.18 385.77 231.08 352.72 240.95 323.56 C 242.49 318.39 245.11 313.65 246.96 308.60 C 249.84 303.47 253.16 298.55 256.21 293.55 C 262.04 286.79 268.06 280.08 274.62 274.00 C 276.24 273.29 277.53 272.13 278.74 270.87 C 281.27 269.48 283.75 268.00 285.78 265.93 C 291.08 263.70 295.72 260.15 301.18 258.27 M 310.00 298.30 C 308.40 299.42 306.23 299.41 305.18 301.27 C 303.51 303.71 300.35 304.14 298.58 306.51 C 296.35 309.84 292.43 311.54 290.52 315.12 C 290.98 316.89 288.96 316.18 288.52 317.44 C 286.65 320.90 284.67 324.34 282.48 327.59 C 276.73 340.11 274.06 354.27 276.55 367.92 C 278.11 376.65 280.87 385.39 286.16 392.70 C 286.64 393.88 286.75 395.48 288.34 395.67 C 288.50 398.95 292.42 399.72 293.17 402.69 C 300.76 410.88 310.29 417.51 320.97 420.98 C 341.44 428.38 365.45 424.95 382.94 411.93 C 384.27 410.72 385.78 409.71 387.51 409.13 C 389.99 405.88 393.00 403.06 396.14 400.44 C 396.40 398.65 397.92 397.59 399.18 396.50 C 399.52 395.20 399.68 393.55 401.34 393.38 C 401.62 390.80 403.42 388.71 404.58 386.46 C 409.94 376.15 411.40 364.56 410.68 353.03 C 410.79 344.02 407.78 335.40 404.44 327.15 C 401.91 323.74 399.85 319.89 397.79 316.20 C 393.39 313.04 390.83 307.20 385.61 305.36 C 385.17 303.63 383.32 302.66 381.71 302.33 C 380.68 299.96 377.72 299.55 375.88 297.98 C 355.93 286.34 329.90 286.60 310.00 298.30 Z" />
</g>
</svg>
